<?xml version="1.0" encoding="UTF-8" standalone="no"?>
<!DOCTYPE svg PUBLIC "-//W3C//DTD SVG 1.1//EN"
 "http://www.w3.org/Graphics/SVG/1.1/DTD/svg11.dtd">
<!-- Generated by graphviz version 10.0.1 (20240210.2158)
 -->
<!-- Title: PreOrderBinaryTree Pages: 1 -->
<svg width="214pt" height="348pt"
 viewBox="0.00 0.00 213.63 348.27" xmlns="http://www.w3.org/2000/svg" xmlns:xlink="http://www.w3.org/1999/xlink">
<g id="graph0" class="graph" transform="scale(1 1) rotate(0) translate(4 344.27)">
<title>PreOrderBinaryTree</title>
<polygon fill="white" stroke="none" points="-4,4 -4,-344.27 209.63,-344.27 209.63,4 -4,4"/>
<!-- 10 -->
<g id="node1" class="node">
<title>10</title>
<ellipse fill="#fffffd" stroke="black" cx="73" cy="-320.64" rx="19.63" ry="19.63"/>
<text text-anchor="middle" x="73" y="-315.22" font-family="Times New Roman,serif" font-size="14.00">10</text>
</g>
<!-- 7 -->
<g id="node2" class="node">
<title>7</title>
<ellipse fill="#fffffd" stroke="black" cx="45" cy="-245.39" rx="18" ry="18"/>
<text text-anchor="middle" x="45" y="-239.97" font-family="Times New Roman,serif" font-size="14.00">7</text>
</g>
<!-- 10&#45;&gt;7 -->
<g id="edge1" class="edge">
<title>10&#45;&gt;7</title>
<path fill="none" stroke="black" d="M66.22,-301.91C62.92,-293.27 58.88,-282.69 55.21,-273.1"/>
<polygon fill="black" stroke="black" points="58.52,-271.97 51.68,-263.87 51.98,-274.46 58.52,-271.97"/>
</g>
<!-- 20 -->
<g id="node3" class="node">
<title>20</title>
<ellipse fill="#fffffd" stroke="black" cx="101" cy="-245.39" rx="19.63" ry="19.63"/>
<text text-anchor="middle" x="101" y="-239.97" font-family="Times New Roman,serif" font-size="14.00">20</text>
</g>
<!-- 10&#45;&gt;20 -->
<g id="edge2" class="edge">
<title>10&#45;&gt;20</title>
<path fill="none" stroke="black" d="M79.78,-301.91C82.88,-293.78 86.64,-283.95 90.13,-274.82"/>
<polygon fill="black" stroke="black" points="93.35,-276.22 93.65,-265.63 86.81,-273.72 93.35,-276.22"/>
</g>
<!-- 3 -->
<g id="node4" class="node">
<title>3</title>
<ellipse fill="#fffffd" stroke="black" cx="45" cy="-170.14" rx="18" ry="18"/>
<text text-anchor="middle" x="45" y="-164.71" font-family="Times New Roman,serif" font-size="14.00">3</text>
</g>
<!-- 7&#45;&gt;3 -->
<g id="edge3" class="edge">
<title>7&#45;&gt;3</title>
<path fill="none" stroke="black" d="M45,-227.03C45,-218.97 45,-209.17 45,-200.04"/>
<polygon fill="black" stroke="black" points="48.5,-200.14 45,-190.14 41.5,-200.14 48.5,-200.14"/>
</g>
<!-- 12 -->
<g id="node7" class="node">
<title>12</title>
<ellipse fill="#fffffd" stroke="black" cx="101" cy="-170.14" rx="19.63" ry="19.63"/>
<text text-anchor="middle" x="101" y="-164.71" font-family="Times New Roman,serif" font-size="14.00">12</text>
</g>
<!-- 20&#45;&gt;12 -->
<g id="edge6" class="edge">
<title>20&#45;&gt;12</title>
<path fill="none" stroke="black" d="M101,-225.53C101,-218.23 101,-209.7 101,-201.59"/>
<polygon fill="black" stroke="black" points="104.5,-201.7 101,-191.7 97.5,-201.7 104.5,-201.7"/>
</g>
<!-- 31 -->
<g id="node8" class="node">
<title>31</title>
<ellipse fill="#fffffd" stroke="black" cx="158" cy="-170.14" rx="19.63" ry="19.63"/>
<text text-anchor="middle" x="158" y="-164.71" font-family="Times New Roman,serif" font-size="14.00">31</text>
</g>
<!-- 20&#45;&gt;31 -->
<g id="edge7" class="edge">
<title>20&#45;&gt;31</title>
<path fill="none" stroke="black" d="M112.81,-229.21C120.45,-219.39 130.57,-206.39 139.29,-195.18"/>
<polygon fill="black" stroke="black" points="141.9,-197.53 145.28,-187.49 136.37,-193.23 141.9,-197.53"/>
</g>
<!-- 1 -->
<g id="node5" class="node">
<title>1</title>
<ellipse fill="#fffffd" stroke="black" cx="18" cy="-94.88" rx="18" ry="18"/>
<text text-anchor="middle" x="18" y="-89.46" font-family="Times New Roman,serif" font-size="14.00">1</text>
</g>
<!-- 3&#45;&gt;1 -->
<g id="edge4" class="edge">
<title>3&#45;&gt;1</title>
<path fill="none" stroke="black" d="M39.01,-152.88C35.78,-144.12 31.71,-133.08 28.02,-123.06"/>
<polygon fill="black" stroke="black" points="31.33,-121.94 24.59,-113.77 24.77,-124.36 31.33,-121.94"/>
</g>
<!-- 4 -->
<g id="node6" class="node">
<title>4</title>
<ellipse fill="#fffffd" stroke="black" cx="72" cy="-94.88" rx="18" ry="18"/>
<text text-anchor="middle" x="72" y="-89.46" font-family="Times New Roman,serif" font-size="14.00">4</text>
</g>
<!-- 3&#45;&gt;4 -->
<g id="edge5" class="edge">
<title>3&#45;&gt;4</title>
<path fill="none" stroke="black" d="M50.99,-152.88C54.22,-144.12 58.29,-133.08 61.98,-123.06"/>
<polygon fill="black" stroke="black" points="65.23,-124.36 65.41,-113.77 58.67,-121.94 65.23,-124.36"/>
</g>
<!-- 50 -->
<g id="node9" class="node">
<title>50</title>
<ellipse fill="#fffffd" stroke="black" cx="158" cy="-94.88" rx="19.63" ry="19.63"/>
<text text-anchor="middle" x="158" y="-89.46" font-family="Times New Roman,serif" font-size="14.00">50</text>
</g>
<!-- 31&#45;&gt;50 -->
<g id="edge8" class="edge">
<title>31&#45;&gt;50</title>
<path fill="none" stroke="black" d="M158,-150.27C158,-142.98 158,-134.45 158,-126.33"/>
<polygon fill="black" stroke="black" points="161.5,-126.45 158,-116.45 154.5,-126.45 161.5,-126.45"/>
</g>
<!-- 32 -->
<g id="node10" class="node">
<title>32</title>
<ellipse fill="#fffffd" stroke="black" cx="129" cy="-19.63" rx="19.63" ry="19.63"/>
<text text-anchor="middle" x="129" y="-14.2" font-family="Times New Roman,serif" font-size="14.00">32</text>
</g>
<!-- 50&#45;&gt;32 -->
<g id="edge9" class="edge">
<title>50&#45;&gt;32</title>
<path fill="none" stroke="black" d="M150.98,-76.15C147.76,-68.02 143.87,-58.18 140.26,-49.06"/>
<polygon fill="black" stroke="black" points="143.55,-47.87 136.61,-39.86 137.04,-50.44 143.55,-47.87"/>
</g>
<!-- 75 -->
<g id="node11" class="node">
<title>75</title>
<ellipse fill="#fffffd" stroke="black" cx="186" cy="-19.63" rx="19.63" ry="19.63"/>
<text text-anchor="middle" x="186" y="-14.2" font-family="Times New Roman,serif" font-size="14.00">75</text>
</g>
<!-- 50&#45;&gt;75 -->
<g id="edge10" class="edge">
<title>50&#45;&gt;75</title>
<path fill="none" stroke="black" d="M164.78,-76.15C167.88,-68.02 171.64,-58.18 175.13,-49.06"/>
<polygon fill="black" stroke="black" points="178.35,-50.45 178.65,-39.86 171.81,-47.96 178.35,-50.45"/>
</g>
</g>
</svg>
