<?xml version="1.0" encoding="UTF-8" standalone="no"?>
<!DOCTYPE svg PUBLIC "-//W3C//DTD SVG 1.1//EN"
 "http://www.w3.org/Graphics/SVG/1.1/DTD/svg11.dtd">
<!-- Generated by graphviz version 10.0.1 (20240210.2158)
 -->
<!-- Title: PreOrderBinaryTree Pages: 1 -->
<svg width="213pt" height="273pt"
 viewBox="0.00 0.00 212.63 273.02" xmlns="http://www.w3.org/2000/svg" xmlns:xlink="http://www.w3.org/1999/xlink">
<g id="graph0" class="graph" transform="scale(1 1) rotate(0) translate(4 269.02)">
<title>PreOrderBinaryTree</title>
<polygon fill="white" stroke="none" points="-4,4 -4,-269.02 208.63,-269.02 208.63,4 -4,4"/>
<!-- 10 -->
<g id="node1" class="node">
<title>10</title>
<ellipse fill="#fffffd" stroke="black" cx="100" cy="-245.39" rx="19.63" ry="19.63"/>
<text text-anchor="middle" x="100" y="-239.97" font-family="Times New Roman,serif" font-size="14.00">10</text>
</g>
<!-- 5 -->
<g id="node2" class="node">
<title>5</title>
<ellipse fill="#fffffd" stroke="black" cx="72" cy="-170.14" rx="18" ry="18"/>
<text text-anchor="middle" x="72" y="-164.71" font-family="Times New Roman,serif" font-size="14.00">5</text>
</g>
<!-- 10&#45;&gt;5 -->
<g id="edge1" class="edge">
<title>10&#45;&gt;5</title>
<path fill="none" stroke="black" d="M93.22,-226.66C89.92,-218.01 85.88,-207.44 82.21,-197.84"/>
<polygon fill="black" stroke="black" points="85.52,-196.71 78.68,-188.62 78.98,-199.21 85.52,-196.71"/>
</g>
<!-- 31 -->
<g id="node3" class="node">
<title>31</title>
<ellipse fill="#fffffd" stroke="black" cx="128" cy="-170.14" rx="19.63" ry="19.63"/>
<text text-anchor="middle" x="128" y="-164.71" font-family="Times New Roman,serif" font-size="14.00">31</text>
</g>
<!-- 10&#45;&gt;31 -->
<g id="edge2" class="edge">
<title>10&#45;&gt;31</title>
<path fill="none" stroke="black" d="M106.78,-226.66C109.88,-218.53 113.64,-208.69 117.13,-199.57"/>
<polygon fill="black" stroke="black" points="120.35,-200.96 120.65,-190.37 113.81,-198.46 120.35,-200.96"/>
</g>
<!-- 3 -->
<g id="node4" class="node">
<title>3</title>
<ellipse fill="#fffffd" stroke="black" cx="18" cy="-94.88" rx="18" ry="18"/>
<text text-anchor="middle" x="18" y="-89.46" font-family="Times New Roman,serif" font-size="14.00">3</text>
</g>
<!-- 5&#45;&gt;3 -->
<g id="edge3" class="edge">
<title>5&#45;&gt;3</title>
<path fill="none" stroke="black" d="M61.59,-155.01C54.12,-144.88 43.88,-130.99 35.21,-119.22"/>
<polygon fill="black" stroke="black" points="38.03,-117.15 29.28,-111.18 32.39,-121.31 38.03,-117.15"/>
</g>
<!-- 7 -->
<g id="node5" class="node">
<title>7</title>
<ellipse fill="#fffffd" stroke="black" cx="72" cy="-94.88" rx="18" ry="18"/>
<text text-anchor="middle" x="72" y="-89.46" font-family="Times New Roman,serif" font-size="14.00">7</text>
</g>
<!-- 5&#45;&gt;7 -->
<g id="edge4" class="edge">
<title>5&#45;&gt;7</title>
<path fill="none" stroke="black" d="M72,-151.78C72,-143.72 72,-133.91 72,-124.78"/>
<polygon fill="black" stroke="black" points="75.5,-124.88 72,-114.88 68.5,-124.88 75.5,-124.88"/>
</g>
<!-- 12 -->
<g id="node6" class="node">
<title>12</title>
<ellipse fill="#fffffd" stroke="black" cx="128" cy="-94.88" rx="19.63" ry="19.63"/>
<text text-anchor="middle" x="128" y="-89.46" font-family="Times New Roman,serif" font-size="14.00">12</text>
</g>
<!-- 31&#45;&gt;12 -->
<g id="edge5" class="edge">
<title>31&#45;&gt;12</title>
<path fill="none" stroke="black" d="M128,-150.27C128,-142.98 128,-134.45 128,-126.33"/>
<polygon fill="black" stroke="black" points="131.5,-126.45 128,-116.45 124.5,-126.45 131.5,-126.45"/>
</g>
<!-- 50 -->
<g id="node7" class="node">
<title>50</title>
<ellipse fill="#fffffd" stroke="black" cx="185" cy="-94.88" rx="19.63" ry="19.63"/>
<text text-anchor="middle" x="185" y="-89.46" font-family="Times New Roman,serif" font-size="14.00">50</text>
</g>
<!-- 31&#45;&gt;50 -->
<g id="edge6" class="edge">
<title>31&#45;&gt;50</title>
<path fill="none" stroke="black" d="M139.81,-153.96C147.45,-144.14 157.57,-131.14 166.29,-119.93"/>
<polygon fill="black" stroke="black" points="168.9,-122.28 172.28,-112.23 163.37,-117.98 168.9,-122.28"/>
</g>
<!-- 45 -->
<g id="node8" class="node">
<title>45</title>
<ellipse fill="#fffffd" stroke="black" cx="185" cy="-19.63" rx="19.63" ry="19.63"/>
<text text-anchor="middle" x="185" y="-14.2" font-family="Times New Roman,serif" font-size="14.00">45</text>
</g>
<!-- 50&#45;&gt;45 -->
<g id="edge7" class="edge">
<title>50&#45;&gt;45</title>
<path fill="none" stroke="black" d="M185,-75.02C185,-67.73 185,-59.19 185,-51.08"/>
<polygon fill="black" stroke="black" points="188.5,-51.2 185,-41.2 181.5,-51.2 188.5,-51.2"/>
</g>
</g>
</svg>
