<?xml version="1.0" encoding="UTF-8" standalone="no"?>
<!DOCTYPE svg PUBLIC "-//W3C//DTD SVG 1.1//EN"
 "http://www.w3.org/Graphics/SVG/1.1/DTD/svg11.dtd">
<!-- Generated by graphviz version 10.0.1 (20240210.2158)
 -->
<!-- Title: PreOrderBinaryTree Pages: 1 -->
<svg width="213pt" height="198pt"
 viewBox="0.00 0.00 212.63 197.76" xmlns="http://www.w3.org/2000/svg" xmlns:xlink="http://www.w3.org/1999/xlink">
<g id="graph0" class="graph" transform="scale(1 1) rotate(0) translate(4 193.76)">
<title>PreOrderBinaryTree</title>
<polygon fill="white" stroke="none" points="-4,4 -4,-193.76 208.63,-193.76 208.63,4 -4,4"/>
<!-- 10 -->
<g id="node1" class="node">
<title>10</title>
<ellipse fill="#fffffd" stroke="black" cx="100" cy="-170.14" rx="19.63" ry="19.63"/>
<text text-anchor="middle" x="100" y="-164.71" font-family="Times New Roman,serif" font-size="14.00">10</text>
</g>
<!-- 5 -->
<g id="node2" class="node">
<title>5</title>
<ellipse fill="#fffffd" stroke="black" cx="72" cy="-94.88" rx="18" ry="18"/>
<text text-anchor="middle" x="72" y="-89.46" font-family="Times New Roman,serif" font-size="14.00">5</text>
</g>
<!-- 10&#45;&gt;5 -->
<g id="edge1" class="edge">
<title>10&#45;&gt;5</title>
<path fill="none" stroke="black" d="M93.22,-151.4C89.92,-142.76 85.88,-132.18 82.21,-122.59"/>
<polygon fill="black" stroke="black" points="85.52,-121.46 78.68,-113.37 78.98,-123.96 85.52,-121.46"/>
</g>
<!-- 20 -->
<g id="node3" class="node">
<title>20</title>
<ellipse fill="#fffffd" stroke="black" cx="128" cy="-94.88" rx="19.63" ry="19.63"/>
<text text-anchor="middle" x="128" y="-89.46" font-family="Times New Roman,serif" font-size="14.00">20</text>
</g>
<!-- 10&#45;&gt;20 -->
<g id="edge2" class="edge">
<title>10&#45;&gt;20</title>
<path fill="none" stroke="black" d="M106.78,-151.4C109.88,-143.28 113.64,-133.44 117.13,-124.32"/>
<polygon fill="black" stroke="black" points="120.35,-125.71 120.65,-115.12 113.81,-123.21 120.35,-125.71"/>
</g>
<!-- 3 -->
<g id="node4" class="node">
<title>3</title>
<ellipse fill="#fffffd" stroke="black" cx="18" cy="-19.63" rx="18" ry="18"/>
<text text-anchor="middle" x="18" y="-14.2" font-family="Times New Roman,serif" font-size="14.00">3</text>
</g>
<!-- 5&#45;&gt;3 -->
<g id="edge3" class="edge">
<title>5&#45;&gt;3</title>
<path fill="none" stroke="black" d="M61.59,-79.76C54.12,-69.62 43.88,-55.74 35.21,-43.97"/>
<polygon fill="black" stroke="black" points="38.03,-41.9 29.28,-35.93 32.39,-46.05 38.03,-41.9"/>
</g>
<!-- 7 -->
<g id="node5" class="node">
<title>7</title>
<ellipse fill="#fffffd" stroke="black" cx="72" cy="-19.63" rx="18" ry="18"/>
<text text-anchor="middle" x="72" y="-14.2" font-family="Times New Roman,serif" font-size="14.00">7</text>
</g>
<!-- 5&#45;&gt;7 -->
<g id="edge4" class="edge">
<title>5&#45;&gt;7</title>
<path fill="none" stroke="black" d="M72,-76.52C72,-68.46 72,-58.66 72,-49.53"/>
<polygon fill="black" stroke="black" points="75.5,-49.63 72,-39.63 68.5,-49.63 75.5,-49.63"/>
</g>
<!-- 12 -->
<g id="node6" class="node">
<title>12</title>
<ellipse fill="#fffffd" stroke="black" cx="128" cy="-19.63" rx="19.63" ry="19.63"/>
<text text-anchor="middle" x="128" y="-14.2" font-family="Times New Roman,serif" font-size="14.00">12</text>
</g>
<!-- 20&#45;&gt;12 -->
<g id="edge5" class="edge">
<title>20&#45;&gt;12</title>
<path fill="none" stroke="black" d="M128,-75.02C128,-67.73 128,-59.19 128,-51.08"/>
<polygon fill="black" stroke="black" points="131.5,-51.2 128,-41.2 124.5,-51.2 131.5,-51.2"/>
</g>
<!-- 31 -->
<g id="node7" class="node">
<title>31</title>
<ellipse fill="#fffffd" stroke="black" cx="185" cy="-19.63" rx="19.63" ry="19.63"/>
<text text-anchor="middle" x="185" y="-14.2" font-family="Times New Roman,serif" font-size="14.00">31</text>
</g>
<!-- 20&#45;&gt;31 -->
<g id="edge6" class="edge">
<title>20&#45;&gt;31</title>
<path fill="none" stroke="black" d="M139.81,-78.7C147.45,-68.88 157.57,-55.88 166.29,-44.67"/>
<polygon fill="black" stroke="black" points="168.9,-47.02 172.28,-36.98 163.37,-42.72 168.9,-47.02"/>
</g>
</g>
</svg>
