<?xml version="1.0" encoding="UTF-8" standalone="no"?>
<!DOCTYPE svg PUBLIC "-//W3C//DTD SVG 1.1//EN"
 "http://www.w3.org/Graphics/SVG/1.1/DTD/svg11.dtd">
<!-- Generated by graphviz version 10.0.1 (20240210.2158)
 -->
<!-- Title: PreOrderBinaryTree Pages: 1 -->
<svg width="214pt" height="201pt"
 viewBox="0.00 0.00 214.13 200.79" xmlns="http://www.w3.org/2000/svg" xmlns:xlink="http://www.w3.org/1999/xlink">
<g id="graph0" class="graph" transform="scale(1 1) rotate(0) translate(4 196.79)">
<title>PreOrderBinaryTree</title>
<polygon fill="white" stroke="none" points="-4,4 -4,-196.79 210.13,-196.79 210.13,4 -4,4"/>
<!-- 10 -->
<g id="node1" class="node">
<title>10</title>
<ellipse fill="#fffffd" stroke="black" cx="100" cy="-172.66" rx="20.13" ry="20.13"/>
<text text-anchor="middle" x="100" y="-167.61" font-family="Times,serif" font-size="14.00">10</text>
</g>
<!-- 5 -->
<g id="node2" class="node">
<title>5</title>
<ellipse fill="#fffffd" stroke="black" cx="72" cy="-96.39" rx="18" ry="18"/>
<text text-anchor="middle" x="72" y="-91.34" font-family="Times,serif" font-size="14.00">5</text>
</g>
<!-- 10&#45;&gt;5 -->
<g id="edge1" class="edge">
<title>10&#45;&gt;5</title>
<path fill="none" stroke="black" d="M93.08,-153.3C89.77,-144.53 85.75,-133.87 82.11,-124.22"/>
<polygon fill="black" stroke="black" points="85.42,-123.06 78.61,-114.94 78.87,-125.53 85.42,-123.06"/>
</g>
<!-- 20 -->
<g id="node3" class="node">
<title>20</title>
<ellipse fill="#fffffd" stroke="black" cx="128" cy="-96.39" rx="20.13" ry="20.13"/>
<text text-anchor="middle" x="128" y="-91.34" font-family="Times,serif" font-size="14.00">20</text>
</g>
<!-- 10&#45;&gt;20 -->
<g id="edge2" class="edge">
<title>10&#45;&gt;20</title>
<path fill="none" stroke="black" d="M106.92,-153.3C109.98,-145.18 113.66,-135.43 117.08,-126.36"/>
<polygon fill="black" stroke="black" points="120.27,-127.8 120.53,-117.21 113.72,-125.33 120.27,-127.8"/>
</g>
<!-- 3 -->
<g id="node4" class="node">
<title>3</title>
<ellipse fill="#fffffd" stroke="black" cx="18" cy="-20.13" rx="18" ry="18"/>
<text text-anchor="middle" x="18" y="-15.08" font-family="Times,serif" font-size="14.00">3</text>
</g>
<!-- 5&#45;&gt;3 -->
<g id="edge3" class="edge">
<title>5&#45;&gt;3</title>
<path fill="none" stroke="black" d="M61.84,-81.43C54.27,-71.02 43.76,-56.56 34.93,-44.41"/>
<polygon fill="black" stroke="black" points="37.9,-42.54 29.19,-36.51 32.24,-46.66 37.9,-42.54"/>
</g>
<!-- 7 -->
<g id="node5" class="node">
<title>7</title>
<ellipse fill="#fffffd" stroke="black" cx="72" cy="-20.13" rx="18" ry="18"/>
<text text-anchor="middle" x="72" y="-15.08" font-family="Times,serif" font-size="14.00">7</text>
</g>
<!-- 5&#45;&gt;7 -->
<g id="edge4" class="edge">
<title>5&#45;&gt;7</title>
<path fill="none" stroke="black" d="M72,-78.17C72,-69.79 72,-59.5 72,-49.97"/>
<polygon fill="black" stroke="black" points="75.5,-50.03 72,-40.03 68.5,-50.03 75.5,-50.03"/>
</g>
<!-- 12 -->
<g id="node6" class="node">
<title>12</title>
<ellipse fill="#fffffd" stroke="black" cx="128" cy="-20.13" rx="20.13" ry="20.13"/>
<text text-anchor="middle" x="128" y="-15.08" font-family="Times,serif" font-size="14.00">12</text>
</g>
<!-- 20&#45;&gt;12 -->
<g id="edge5" class="edge">
<title>20&#45;&gt;12</title>
<path fill="none" stroke="black" d="M128,-75.88C128,-68.55 128,-60.02 128,-51.91"/>
<polygon fill="black" stroke="black" points="131.5,-52.03 128,-42.03 124.5,-52.03 131.5,-52.03"/>
</g>
<!-- 31 -->
<g id="node7" class="node">
<title>31</title>
<ellipse fill="#fffffd" stroke="black" cx="186" cy="-20.13" rx="20.13" ry="20.13"/>
<text text-anchor="middle" x="186" y="-15.08" font-family="Times,serif" font-size="14.00">31</text>
</g>
<!-- 20&#45;&gt;31 -->
<g id="edge6" class="edge">
<title>20&#45;&gt;31</title>
<path fill="none" stroke="black" d="M140.02,-80.01C147.74,-70.12 157.95,-57.05 166.78,-45.73"/>
<polygon fill="black" stroke="black" points="169.47,-47.98 172.87,-37.95 163.95,-43.67 169.47,-47.98"/>
</g>
</g>
</svg>
